<?xml version="1.0" encoding="utf-8"?>
<!-- Generator: Adobe Illustrator 23.0.6, SVG Export Plug-In . SVG Version: 6.00 Build 0)  -->
<svg version="1.1" id="Layer_1" xmlns="http://www.w3.org/2000/svg" xmlns:xlink="http://www.w3.org/1999/xlink" x="0px" y="0px"
	 viewBox="0 0 219 251" style="enable-background:new 0 0 219 251;" xml:space="preserve">
<style type="text/css">
	.st0{fill:#333333;}
	.st1{fill:#FFFFFF;}
	.st2{fill:#21ABA5;}
	.st3{fill:#EEEEEE;}
	.st4{fill:#1D566E;}
	.st5{fill:#DDDDDD;}
	.st6{fill:#45EBA5;}
	.st7{fill:none;stroke:#FFFFFF;stroke-miterlimit:10;}
	.st8{fill:none;}
</style>
<g>
	<path class="st0" d="M2.1,179.6c0,5.2,2.8,10,7.3,12.5l93,52.1c4.4,2.5,9.8,2.4,14.2-0.1l93.2-53.8c4.4-2.6,7.2-7.3,7.2-12.4V70.5
		c0-5.1-2.7-9.9-7.2-12.4L116.7,4.3c-4.4-2.6-9.9-2.6-14.3,0L9.3,58c-4.4,2.6-7.2,7.3-7.2,12.4"/>
	<polygon class="st1" points="14.7,70.1 14.7,179.1 109.2,233.6 203.6,179.1 203.6,70.1 109.2,15.6 	"/>
	<polygon class="st2" points="209.9,66.2 197.8,73.3 197.7,175.3 197.8,175.3 109.6,226.2 109.4,240.4 210,182.3 	"/>
	<polygon class="st3" points="197.7,175.3 109.5,226.3 108,125.9 197.7,73.2 	"/>
	<polygon class="st4" points="9,66.3 21.1,73.4 21.1,175.4 21.2,175.3 109.5,226.3 109.5,240.3 9,182.5 	"/>
	<polygon class="st5" points="109.6,226.2 21.1,175.4 21.2,73.2 107.6,125.7 	"/>
	<polygon class="st4" points="107.6,125.7 83.8,111.4 69.2,111.4 108.4,174.9 	"/>
	<path class="st2" d="M107.6,125.7l0.8,49.2l4.3,7h33.8l-28-45.3c16-2.6,28.2-16.9,28.2-33.6"/>
	<path class="st6" d="M113.1,69.6c-0.7,0-1.4,0-2.1,0.1H68.5v25.6h44c0.2,0,0.3,0,0.5,0c4.5,0,8.1,3.6,8.1,8.1
		c0,4.5-3.6,8.1-8.1,8.1c-0.2,0-0.3,0-0.5,0v0H103H83.8l23.8,14.3l39.1-22.8C146.2,84.8,131.3,69.6,113.1,69.6z"/>
	<rect x="68.5" y="157.5" class="st4" width="24.4" height="24.4"/>
	<path class="st7" d="M108,125.9"/>
	<path class="st8" d="M108,126"/>
	<polygon class="st6" points="210,66.2 197.7,73.2 109.5,22.2 109.5,22.3 21.2,73.2 9,66.3 109.4,8.1 	"/>
</g>
</svg>
