<?xml version="1.0" encoding="utf-8"?>
<!-- Generator: Adobe Illustrator 23.0.6, SVG Export Plug-In . SVG Version: 6.00 Build 0)  -->
<svg version="1.1" id="Layer_1" xmlns="http://www.w3.org/2000/svg" xmlns:xlink="http://www.w3.org/1999/xlink" x="0px" y="0px"
	 viewBox="0 0 219 287" style="enable-background:new 0 0 219 287;" xml:space="preserve">
<style type="text/css">
	.st0{fill:#333333;}
	.st1{fill:#FFFFFF;}
	.st2{fill:#21ABA5;}
	.st3{fill:#EEEEEE;}
	.st4{fill:#1D566E;}
	.st5{fill:#DDDDDD;}
	.st6{fill:#45EBA5;}
	.st7{fill:none;stroke:#FFFFFF;stroke-miterlimit:10;}
	.st8{fill:none;}
</style>
<path class="st0" d="M211.68,232.87l-79.57,45.94c-13.99,8.08-31.23,8.08-45.22,0L7.32,232.87c-6.97-4.02-6.97-14.08,0-18.1
	l93.87-54.2c5.15-2.97,11.49-2.97,16.63,0l93.87,54.2C218.65,218.79,218.65,228.85,211.68,232.87z"/>
<g>
	<path class="st0" d="M2.1,179.59c0,5.19,2.8,9.97,7.33,12.51l92.96,52.13c4.41,2.48,9.81,2.44,14.19-0.09l93.16-53.79
		c4.44-2.56,7.17-7.3,7.17-12.42V70.48c0-5.13-2.73-9.86-7.17-12.42L116.68,4.33c-4.44-2.56-9.91-2.56-14.35,0L9.27,58.05
		c-4.44,2.56-7.17,7.3-7.17,12.42"/>
	<polygon class="st1" points="14.74,70.08 14.74,179.11 109.16,233.63 203.58,179.11 203.58,70.08 109.16,15.57 	"/>
	<polygon class="st2" points="209.86,66.24 197.75,73.3 197.71,175.26 197.82,175.32 109.55,226.23 109.39,240.35 210.03,182.25 	
		"/>
	<polygon class="st3" points="197.71,175.26 109.46,226.3 108,125.89 197.7,73.15 	"/>
	<polygon class="st4" points="8.97,66.25 21.12,73.45 21.08,175.35 21.19,175.28 109.46,226.3 109.52,240.31 8.97,182.46 	"/>
	<polygon class="st5" points="109.55,226.23 21.08,175.35 21.16,73.23 107.62,125.73 	"/>
	<polygon class="st4" points="107.62,125.73 83.79,111.39 69.19,111.39 108.44,174.9 	"/>
	<path class="st2" d="M107.62,125.73l0.82,49.17l4.3,6.96h33.83l-28-45.32c16-2.62,28.2-16.87,28.2-33.61"/>
	<path class="st6" d="M113.08,69.6c-0.71,0-1.41,0.02-2.1,0.06h-42.5v25.56h43.97c0.17-0.01,0.34-0.02,0.5-0.02
		c4.47,0,8.1,3.62,8.1,8.09c0,4.47-3.63,8.1-8.1,8.1c-0.16,0-0.33-0.01-0.5-0.02v0.02h-9.42H83.79l23.83,14.34l39.13-22.84
		C146.19,84.78,131.33,69.6,113.08,69.6z"/>
	<rect x="68.47" y="157.48" class="st4" width="24.38" height="24.38"/>
	<path class="st7" d="M108,125.89"/>
	<path class="st8" d="M107.99,125.98"/>
	<polygon class="st6" points="210.01,66.23 197.7,73.15 109.48,22.16 109.47,22.29 21.16,73.23 8.99,66.28 109.36,8.12 	"/>
</g>
</svg>
